<svg width="20" height="20" viewBox="0 0 20 20" fill="none" xmlns="http://www.w3.org/2000/svg">
<path fill-rule="evenodd" clip-rule="evenodd" d="M11.4499 2.8802H14.5199C18.2099 2.8802 20.0099 4.8502 19.9999 8.8902V13.7602C19.9999 17.6202 17.6199 20.0002 13.7499 20.0002H6.23989C2.38989 20.0002 -0.000106812 17.6202 -0.000106812 13.7502V6.2402C-0.000106812 2.1002 1.83989 0.000201178 5.46989 0.000201178H7.04989C7.98089 -0.00979882 8.84989 0.420201 9.41989 1.1502L10.2999 2.3202C10.5799 2.6702 10.9999 2.8802 11.4499 2.8802ZM5.36989 13.2902H14.6299C15.0399 13.2902 15.3699 12.9502 15.3699 12.5402C15.3699 12.1202 15.0399 11.7902 14.6299 11.7902H5.36989C4.94989 11.7902 4.61989 12.1202 4.61989 12.5402C4.61989 12.9502 4.94989 13.2902 5.36989 13.2902Z" fill="#3580FF"/>
</svg>
