<svg width="18" height="18" viewBox="0 0 18 18" fill="none" xmlns="http://www.w3.org/2000/svg">
<path fill-rule="evenodd" clip-rule="evenodd" d="M1.5 4.41667C1.5 2.22899 1.52342 1.5 4.41667 1.5C7.30991 1.5 7.33333 2.22899 7.33333 4.41667C7.33333 6.60434 7.34256 7.33333 4.41667 7.33333C1.49077 7.33333 1.5 6.60434 1.5 4.41667Z" stroke="#002055" stroke-width="1.5" stroke-linecap="round" stroke-linejoin="round"/>
<path fill-rule="evenodd" clip-rule="evenodd" d="M10.6666 4.41667C10.6666 2.22899 10.6901 1.5 13.5833 1.5C16.4765 1.5 16.5 2.22899 16.5 4.41667C16.5 6.60434 16.5092 7.33333 13.5833 7.33333C10.6574 7.33333 10.6666 6.60434 10.6666 4.41667Z" stroke="#002055" stroke-width="1.5" stroke-linecap="round" stroke-linejoin="round"/>
<path fill-rule="evenodd" clip-rule="evenodd" d="M1.5 13.5833C1.5 11.3956 1.52342 10.6666 4.41667 10.6666C7.30991 10.6666 7.33333 11.3956 7.33333 13.5833C7.33333 15.771 7.34256 16.5 4.41667 16.5C1.49077 16.5 1.5 15.771 1.5 13.5833Z" stroke="#002055" stroke-width="1.5" stroke-linecap="round" stroke-linejoin="round"/>
<path fill-rule="evenodd" clip-rule="evenodd" d="M10.6666 13.5833C10.6666 11.3956 10.6901 10.6666 13.5833 10.6666C16.4765 10.6666 16.5 11.3956 16.5 13.5833C16.5 15.771 16.5092 16.5 13.5833 16.5C10.6574 16.5 10.6666 15.771 10.6666 13.5833Z" stroke="#002055" stroke-width="1.5" stroke-linecap="round" stroke-linejoin="round"/>
</svg>
