<svg xmlns="http://www.w3.org/2000/svg" version="1.1" xmlns:xlink="http://www.w3.org/1999/xlink" xmlns:svgjs="http://svgjs.com/svgjs" width="512" height="512" x="0" y="0" viewBox="0 0 24 24" style="enable-background:new 0 0 512 512" xml:space="preserve" class=""><g><g id="Layer_79" data-name="Layer 79"><path d="m20.4961 11.1577a8.0036 8.0036 0 1 1 -2.6917-5.18l-1.4157.0077a1 1 0 0 0 .0058 2h.0055l3.6055-.0195a1 1 0 0 0 .9945-1.005l-.02-3.6054a.9655.9655 0 0 0 -1.0059-.9947 1 1 0 0 0 -.9941 1.0054l.0052.9963a9.99 9.99 0 1 0 3.4987 6.5862 1 1 0 1 0 -1.9883.209z" fill="#000000" data-original="#000000" class=""></path></g></g></svg>